<?xml version="1.0" standalone="no"?>
<!DOCTYPE svg PUBLIC "-//W3C//DTD SVG 20010904//EN"
 "http://www.w3.org/TR/2001/REC-SVG-20010904/DTD/svg10.dtd">
<svg version="1.0" xmlns="http://www.w3.org/2000/svg"
 width="1024.000000pt" height="1024.000000pt" viewBox="0 0 1024.000000 1024.000000"
 preserveAspectRatio="xMidYMid meet">

<g transform="translate(0.000000,1024.000000) scale(0.100000,-0.100000)"
fill="#000000" stroke="none">
<path d="M5082 8685 c-56 -24 -62 -55 -62 -298 0 -206 1 -215 23 -248 31 -45
77 -59 122 -34 59 31 65 57 65 295 0 237 -5 261 -65 286 -41 17 -42 17 -83 -1z"/>
<path d="M4068 8374 c-30 -16 -58 -61 -58 -93 0 -11 17 -41 37 -68 21 -26 75
-97 121 -158 107 -141 147 -183 177 -191 73 -18 144 55 119 124 -5 13 -67 102
-139 198 -153 204 -185 227 -257 188z"/>
<path d="M6080 8374 c-14 -8 -70 -75 -125 -146 -183 -239 -192 -257 -161 -317
16 -29 53 -51 89 -51 44 0 85 40 217 215 110 147 134 185 134 212 0 70 -97
124 -154 87z"/>
<path d="M4925 7904 c-210 -45 -401 -168 -536 -346 -122 -162 -179 -341 -179
-565 0 -141 15 -195 61 -218 42 -22 75 -18 110 13 l31 28 2 164 c2 140 6 175
25 235 82 252 277 437 516 490 115 26 295 17 400 -19 192 -66 355 -218 433
-403 42 -99 54 -177 50 -330 -3 -134 -2 -144 18 -163 32 -33 93 -37 128 -9 46
36 56 74 56 218 0 178 -30 300 -110 448 -121 225 -364 406 -612 457 -97 20
-298 20 -393 0z"/>
<path d="M3384 7736 c-43 -43 -46 -90 -9 -134 20 -24 322 -210 433 -266 81
-42 179 37 151 121 -13 41 -54 69 -314 216 -104 59 -182 97 -199 97 -19 0 -39
-11 -62 -34z"/>
<path d="M6752 7759 c-55 -21 -419 -235 -444 -260 -22 -22 -28 -37 -28 -72 0
-74 63 -122 130 -99 47 17 442 244 468 269 41 41 21 128 -38 158 -33 17 -54
18 -88 4z"/>
<path d="M5035 7549 c-267 -44 -445 -259 -445 -535 0 -151 51 -263 180 -398
l79 -82 3 -65 3 -64 97 -3 97 -3 3 292 3 291 24 19 c31 25 64 24 96 -3 l26
-23 6 -288 6 -288 91 3 91 3 3 64 3 64 78 76 c122 118 181 253 181 416 0 152
-57 282 -170 389 -126 119 -280 165 -455 135z m46 -150 c27 -14 41 -53 30 -83
-6 -15 -28 -31 -65 -46 -103 -41 -186 -166 -186 -277 0 -54 -21 -83 -58 -83
-43 0 -62 26 -62 88 0 62 23 159 50 211 37 72 138 155 228 187 46 16 40 16 63
3z"/>
<path d="M3361 7244 c-32 -41 -26 -76 26 -155 l47 -70 -32 -62 c-38 -73 -38
-77 -11 -111 30 -38 88 -37 122 4 14 16 28 39 32 50 7 23 45 25 190 11 91 -9
124 1 143 44 18 39 15 54 -17 86 -28 28 -33 29 -124 29 -145 0 -148 1 -198 82
-63 100 -82 118 -123 118 -25 0 -40 -7 -55 -26z"/>
<path d="M6786 7229 c-15 -17 -34 -45 -43 -63 -8 -17 -26 -46 -40 -63 l-24
-33 -133 0 c-119 0 -134 -2 -154 -20 -31 -29 -36 -62 -17 -99 19 -38 37 -42
175 -44 l103 -2 27 -83 c15 -45 29 -84 31 -86 24 -21 53 -26 85 -16 60 20 63
45 23 179 -10 35 -19 67 -19 71 0 4 29 48 65 96 37 50 65 99 65 112 0 13 -13
37 -29 53 -40 40 -81 39 -115 -2z"/>
<path d="M3230 6600 c-118 -3 -216 -7 -218 -8 -1 -1 -11 -17 -22 -34 -23 -38
-25 -66 -8 -103 23 -51 45 -55 317 -55 l249 0 30 25 c36 30 47 75 28 120 -26
62 -46 65 -376 55z"/>
<path d="M6880 6600 c-107 -3 -201 -9 -209 -14 -7 -5 -20 -24 -28 -43 -18 -43
-4 -93 34 -123 24 -19 40 -20 275 -20 152 0 257 4 269 10 25 14 49 62 49 97 0
62 -62 105 -147 101 -26 -1 -136 -5 -243 -8z"/>
<path d="M4851 6260 c-62 -15 -81 -81 -36 -125 13 -14 33 -25 45 -25 34 0 25
-34 -12 -45 -69 -21 -75 -99 -11 -140 26 -16 32 -27 33 -53 1 -98 52 -182 137
-223 35 -17 65 -23 122 -23 67 -1 83 3 131 30 77 43 112 96 118 176 4 56 8 65
43 98 23 21 39 46 39 59 0 28 -52 81 -79 81 -34 0 -27 36 9 43 66 14 92 83 47
125 -22 21 -32 21 -294 24 -150 2 -281 1 -292 -2z"/>
<path d="M3710 6241 c-72 -23 -446 -228 -470 -258 -32 -40 -26 -89 14 -129 57
-57 77 -52 335 85 124 66 233 130 243 143 37 48 12 129 -47 154 -38 15 -39 16
-75 5z"/>
<path d="M6473 6236 c-34 -16 -63 -61 -63 -99 0 -36 34 -73 103 -110 34 -19
132 -73 218 -120 85 -47 167 -89 181 -92 36 -9 95 20 113 56 22 42 18 75 -12
109 -28 30 -437 254 -483 264 -14 3 -39 -1 -57 -8z"/>
<path d="M5844 6116 c-150 -70 -191 -278 -77 -392 42 -42 123 -84 162 -84 19
0 59 -18 105 -47 l75 -48 0 -212 1 -213 -240 0 -240 0 -28 46 c-50 87 -87 129
-132 152 -43 21 -53 22 -345 22 -271 0 -304 -2 -340 -19 -50 -23 -85 -60 -127
-136 l-34 -60 -475 -5 -476 -5 -49 -30 c-69 -43 -103 -108 -104 -197 0 -79 -7
-63 189 -461 208 -422 212 -426 439 -427 l132 0 -2 -697 -3 -696 -81 2 c-90 2
-145 -14 -163 -47 -14 -26 -14 -87 -1 -113 28 -51 -9 -49 1101 -49 l1031 0 34
34 c43 43 46 90 8 135 -26 31 -26 31 -125 31 l-99 0 0 700 0 700 133 0 c237 1
238 1 495 550 60 129 115 254 122 278 24 91 -29 215 -112 262 -38 22 -58 26
-178 30 l-135 5 0 155 0 154 47 -3 c102 -6 178 71 178 181 0 33 -7 72 -15 87
-21 41 -91 100 -197 165 -124 75 -127 78 -139 121 -13 45 -70 110 -120 136
-55 28 -149 26 -215 -5z m163 -168 c13 -12 23 -29 23 -37 0 -9 55 -52 130
-101 195 -127 181 -114 178 -174 -2 -42 -6 -51 -23 -54 -12 -1 -78 39 -167
103 -107 77 -155 105 -177 105 -17 0 -42 11 -60 26 -25 21 -31 33 -31 65 0 75
76 115 127 67z m503 -1112 l0 -73 -117 -5 c-65 -3 -687 -4 -1383 -4 l-1265 1
-3 78 -3 77 1386 0 1385 0 0 -74z m-370 -304 c0 -19 -138 -326 -148 -330 -9
-3 -12 23 -12 87 l0 91 -105 0 -105 0 0 -887 0 -888 -74 -3 -74 -3 -7 162 c-4
88 -4 489 0 890 l8 729 -492 0 -491 0 -2 -887 -3 -888 -40 -3 c-22 -2 -58 -1
-80 3 l-40 5 3 885 2 885 -100 0 -100 0 0 -97 c0 -84 -2 -95 -14 -83 -12 12
-127 262 -149 323 -6 16 46 17 1008 17 558 0 1015 -4 1015 -8z m-989 -524 c18
-55 91 -132 158 -166 53 -26 77 -52 49 -52 -7 0 -41 -13 -75 -29 -50 -24 -69
-40 -97 -83 -19 -29 -38 -65 -42 -81 -8 -34 -22 -44 -30 -20 -30 94 -96 166
-181 198 -26 10 -52 21 -57 25 -4 5 20 22 55 40 80 39 133 90 165 157 13 29
28 53 33 53 4 0 14 -19 22 -42z"/>
<path d="M4135 5780 c-120 -80 -111 -79 -230 -24 -63 30 -67 30 -104 -2 -23
-19 -31 -34 -31 -59 0 -44 35 -73 128 -105 l72 -24 0 -83 c0 -70 3 -86 20
-103 26 -26 80 -26 111 -1 22 17 24 29 28 116 l3 97 60 37 c142 86 163 111
138 170 -11 27 -46 51 -75 51 -7 0 -61 -32 -120 -70z"/>
<path d="M3709 2231 c-28 -29 -29 -32 -29 -135 l0 -105 -186 -3 -186 -3 -29
-33 c-43 -47 -41 -102 5 -148 l34 -34 1799 0 c1407 0 1803 3 1822 13 34 17 65
80 56 114 -3 14 -21 41 -40 60 l-33 33 -176 0 -176 0 0 83 c0 65 -4 89 -20
115 -40 66 31 63 -1268 60 -1106 -3 -1180 -4 -1205 -21 -48 -31 -59 -60 -58
-142 2 -104 -16 -135 -76 -135 -28 0 -63 21 -63 38 0 4 -2 56 -3 115 -2 106
-3 109 -30 133 -41 35 -99 33 -138 -5z"/>
</g>
</svg>
