<?xml version="1.0" standalone="no"?>
<!DOCTYPE svg PUBLIC "-//W3C//DTD SVG 20010904//EN"
 "http://www.w3.org/TR/2001/REC-SVG-20010904/DTD/svg10.dtd">
<svg version="1.0" xmlns="http://www.w3.org/2000/svg"
 width="1024.000000pt" height="1024.000000pt" viewBox="0 0 1024.000000 1024.000000"
 preserveAspectRatio="xMidYMid meet">

<g transform="translate(0.000000,1024.000000) scale(0.100000,-0.100000)"
fill="#000000" stroke="none">
<path d="M4960 7935 c-38 -14 -88 -24 -120 -25 -135 -1 -401 -60 -636 -141
-404 -139 -676 -298 -1010 -591 l-122 -107 -47 16 c-65 22 -176 14 -240 -17
-27 -13 -66 -41 -88 -63 -113 -113 -130 -332 -34 -451 l23 -29 -59 -120 c-98
-199 -184 -437 -233 -647 -25 -106 -55 -290 -46 -290 2 0 17 9 32 20 83 59
199 77 289 45 l41 -14 6 27 c56 253 143 513 235 700 55 113 67 146 59 161 -8
16 -5 20 18 25 15 4 41 14 59 23 l32 17 108 -106 c193 -188 218 -208 264 -208
34 0 47 6 76 35 33 33 35 39 30 82 -5 44 -11 52 -166 202 l-161 156 10 40 c5
22 10 61 10 87 0 43 4 49 53 93 56 52 273 215 375 284 148 99 454 243 650 305
67 21 328 76 361 76 5 0 13 -29 19 -65 21 -131 100 -243 204 -294 l47 -23 3
-455 3 -455 33 -29 c38 -34 93 -39 131 -13 49 35 51 52 51 518 l0 434 44 21
c98 48 189 182 204 300 l7 56 35 -3 c88 -9 286 -55 395 -92 316 -109 561 -243
841 -463 185 -145 175 -134 180 -201 1 -33 8 -73 15 -89 12 -28 11 -30 -149
-183 -165 -159 -190 -194 -176 -248 10 -40 59 -76 103 -76 37 0 97 34 130 73
7 10 67 67 132 128 l118 111 59 -24 c54 -21 58 -25 49 -45 -8 -18 -1 -38 36
-105 95 -176 207 -483 245 -669 18 -89 21 -94 43 -91 153 19 230 8 298 -43 19
-14 39 -25 43 -25 11 0 3 54 -34 225 -51 240 -142 497 -255 718 l-55 107 25
30 c46 55 69 135 65 225 -5 98 -32 160 -98 225 -87 88 -206 120 -321 87 l-53
-16 -75 68 c-239 213 -509 396 -755 511 -297 139 -707 253 -941 261 -41 2 -96
12 -135 26 -89 31 -191 30 -280 -2z m235 -179 c39 -26 59 -64 59 -115 0 -91
-57 -151 -143 -151 -115 0 -179 113 -125 221 36 71 136 93 209 45z m-2162
-889 c63 -48 71 -163 15 -214 -37 -33 -63 -43 -115 -43 -60 0 -104 26 -126 73
-34 71 -12 151 53 195 47 32 123 27 173 -11z m4343 2 c75 -70 72 -184 -7 -240
-88 -63 -218 -6 -235 103 -8 48 25 119 69 148 45 30 136 24 173 -11z"/>
<path d="M3700 6234 c-228 -233 -416 -428 -418 -432 -1 -4 92 -102 208 -217
l210 -210 52 52 53 52 37 -78 c30 -63 49 -89 95 -128 31 -26 116 -105 188
-174 71 -69 252 -240 400 -379 149 -140 400 -378 558 -530 159 -151 300 -281
314 -289 34 -17 107 -9 141 16 71 53 90 127 49 195 -14 24 -115 128 -225 232
-110 104 -213 206 -228 225 -58 72 -24 161 61 161 40 0 46 -6 298 -250 254
-247 258 -250 300 -250 96 0 161 89 136 184 -9 34 -52 83 -265 297 -251 253
-254 256 -254 298 0 60 33 91 97 91 l48 0 289 -290 c243 -244 294 -290 318
-290 33 0 68 31 68 61 0 14 -102 121 -312 327 -172 169 -343 335 -379 370
l-66 62 -106 0 -106 0 -132 -139 c-84 -89 -150 -149 -183 -168 -47 -26 -59
-28 -161 -28 -104 0 -114 2 -177 33 -154 75 -249 264 -220 438 19 116 47 157
242 356 l179 183 -267 3 -266 2 119 120 119 119 -194 198 c-107 109 -197 199
-200 200 -3 1 -192 -189 -420 -423z m466 72 c29 -29 34 -41 34 -81 0 -25 -5
-55 -10 -66 -25 -45 -123 -65 -168 -33 -26 18 -52 65 -52 94 0 35 31 90 59
105 14 8 43 14 65 15 30 0 45 -7 72 -34z m-378 -422 c54 -35 64 -130 19 -172
-98 -91 -239 6 -181 125 33 67 101 86 162 47z"/>
<path d="M5904 6461 l-192 -196 115 -123 115 -122 -353 0 c-354 0 -454 -7
-516 -36 -17 -9 -94 -80 -170 -157 -316 -323 -323 -332 -323 -419 1 -137 145
-244 263 -195 18 8 93 76 167 151 185 189 171 181 357 179 133 -2 157 -5 194
-23 23 -12 153 -129 291 -262 l249 -241 65 64 c123 121 192 231 224 358 l12
44 55 -55 55 -56 215 215 214 214 -340 347 c-187 191 -377 384 -423 428 l-83
82 -191 -197z m294 -146 c62 -52 64 -138 5 -184 -52 -42 -142 -23 -172 36 -15
29 -13 92 3 122 30 55 114 68 164 26z m368 -433 c68 -54 55 -160 -24 -198
-117 -55 -220 107 -120 191 36 31 111 35 144 7z"/>
<path d="M2516 5370 c-153 -55 -236 -172 -236 -335 0 -124 60 -235 161 -297
l49 -31 -31 -39 c-17 -21 -47 -50 -65 -65 -40 -30 -41 -26 12 -223 79 -293
239 -658 379 -865 47 -70 71 -117 81 -158 19 -79 54 -144 105 -195 52 -51 134
-92 183 -92 30 0 45 -10 108 -73 288 -286 774 -540 1248 -651 120 -28 298 -56
359 -56 22 0 76 -12 118 -26 94 -32 169 -29 258 10 40 18 75 26 116 26 81 0
289 34 434 72 268 69 609 219 830 366 146 97 324 239 367 293 24 30 38 39 63
39 128 0 279 149 301 300 4 25 13 50 20 55 23 17 142 215 208 345 105 205 211
497 255 700 l20 96 -66 69 -66 69 24 16 c80 53 119 93 149 154 82 166 29 367
-120 461 -130 82 -317 67 -433 -34 -31 -28 -81 -114 -101 -173 -5 -17 -32 -18
-386 -18 l-382 0 -28 -29 c-50 -49 -52 -110 -5 -157 l24 -24 390 0 389 0 32
-49 c53 -83 155 -161 210 -161 26 0 26 -20 0 -130 -30 -124 -76 -269 -127
-400 -45 -115 -161 -365 -189 -408 -14 -21 -16 -22 -46 -6 -38 20 -129 29
-191 20 -25 -4 -74 -25 -110 -47 l-66 -39 -38 39 c-47 48 -442 422 -501 474
-33 29 -50 37 -80 37 -76 0 -128 -62 -115 -134 5 -25 145 -162 551 -542 l55
-51 -2 -86 c-1 -56 4 -108 15 -146 l16 -60 -28 -26 c-68 -60 -280 -192 -419
-260 -173 -85 -366 -154 -545 -196 -182 -42 -180 -42 -214 36 -36 84 -104 156
-178 190 l-58 26 0 372 c0 228 -4 387 -11 410 -12 44 -45 69 -93 70 -47 1 -82
-19 -101 -58 -13 -28 -15 -91 -15 -417 l0 -385 -38 -11 c-86 -26 -173 -120
-207 -223 -9 -27 -20 -49 -24 -49 -38 0 -203 38 -321 73 -307 93 -558 216
-777 379 l-91 68 21 52 c15 40 20 76 20 145 l1 92 220 208 c122 114 258 244
304 288 79 79 82 83 82 127 0 39 -5 52 -31 77 -24 25 -39 31 -72 31 -23 0 -54
-8 -68 -18 -15 -9 -127 -113 -250 -231 -123 -118 -245 -234 -270 -258 l-46
-44 -52 35 c-29 20 -69 40 -89 46 -55 15 -152 12 -206 -6 -27 -9 -51 -13 -56
-8 -14 15 -136 265 -174 355 -67 162 -176 517 -176 573 0 9 8 16 18 16 62 0
203 109 232 179 l12 31 342 0 c308 0 343 2 362 18 52 42 58 106 15 154 l-29
33 -337 5 -337 5 -20 52 c-62 168 -271 263 -442 203z m182 -210 c97 -59 96
-207 -1 -253 -104 -50 -217 12 -217 118 1 114 125 192 218 135z m4961 2 c95
-48 108 -166 27 -242 -21 -19 -40 -25 -90 -28 -59 -4 -65 -2 -99 27 -46 41
-63 90 -48 141 30 100 124 146 210 102z m-4404 -1622 c40 -25 65 -74 65 -130
0 -87 -58 -140 -153 -140 -93 0 -144 61 -135 162 5 45 11 57 46 90 37 34 47
38 93 38 34 0 63 -7 84 -20z m3877 -6 c40 -29 58 -67 58 -121 0 -113 -111
-183 -212 -134 -54 26 -78 65 -78 126 0 65 38 128 90 148 30 12 116 1 142 -19z
m-1922 -832 c62 -62 66 -154 10 -211 -61 -60 -143 -64 -205 -10 -58 52 -67
124 -23 197 27 44 62 61 127 62 49 0 57 -3 91 -38z"/>
<path d="M3891 4939 c-25 -25 -31 -39 -31 -75 0 -82 40 -124 116 -124 28 0 44
8 70 34 29 29 34 41 34 81 0 40 -5 52 -34 81 -29 29 -41 34 -79 34 -37 0 -51
-5 -76 -31z"/>
<path d="M4147 4710 c-60 -48 -57 -152 6 -190 92 -57 193 16 173 124 -14 76
-118 114 -179 66z"/>
<path d="M4433 4506 c-79 -35 -85 -160 -11 -207 49 -30 104 -21 145 25 46 50
46 103 1 151 -39 40 -88 52 -135 31z"/>
<path d="M4666 4249 c-88 -76 -34 -219 78 -205 74 9 124 89 96 156 -33 80
-114 103 -174 49z"/>
</g>
</svg>
