<?xml version="1.0" standalone="no"?>
<!DOCTYPE svg PUBLIC "-//W3C//DTD SVG 20010904//EN"
 "http://www.w3.org/TR/2001/REC-SVG-20010904/DTD/svg10.dtd">
<svg version="1.0" xmlns="http://www.w3.org/2000/svg"
 width="1024.000000pt" height="1024.000000pt" viewBox="0 0 1024.000000 1024.000000"
 preserveAspectRatio="xMidYMid meet">

<g transform="translate(0.000000,1024.000000) scale(0.100000,-0.100000)"
fill="#000000" stroke="none">
<path d="M5040 8326 c-117 -45 -2222 -1052 -2267 -1085 -35 -25 -66 -98 -58
-137 12 -65 46 -90 289 -209 127 -61 268 -131 314 -153 50 -25 89 -39 100 -35
9 3 14 3 10 -2 -10 -10 10 -28 50 -44 29 -12 34 -12 46 4 7 10 18 15 24 11 7
-4 12 -1 12 8 0 20 4 20 40 1 19 -10 31 -11 35 -5 4 6 3 9 -2 8 -4 -1 -21 6
-36 16 -26 18 -29 18 -40 2 -12 -16 -14 -16 -37 5 -17 15 -21 23 -12 26 7 3
19 11 27 20 13 13 15 13 15 -1 0 -9 -7 -16 -15 -16 -8 0 -15 -4 -15 -10 0 -5
9 -10 19 -10 20 0 37 32 26 49 -3 6 3 14 12 20 10 5 14 13 9 18 -5 4 -11 2
-13 -5 -5 -13 -23 -7 -23 8 0 16 30 19 44 4 9 -8 19 -13 23 -12 4 2 9 -8 11
-20 3 -21 0 -23 -20 -17 -18 5 -20 4 -8 -4 23 -17 40 -13 40 9 0 11 7 20 15
20 18 0 20 -16 3 -24 -7 -3 -3 -3 10 0 15 4 22 1 22 -10 0 -8 4 -17 9 -20 5
-4 7 4 4 16 -4 20 -3 21 9 8 7 -8 18 -15 23 -15 6 0 44 -16 85 -36 41 -21 136
-66 210 -102 74 -35 317 -155 540 -265 223 -110 435 -210 470 -222 115 -39
149 -27 605 195 367 180 534 260 740 357 94 44 173 83 177 87 6 5 -205 65
-307 86 -11 3 -173 43 -360 91 -597 151 -612 155 -640 144 -73 -28 -219 -1
-293 53 -126 93 -108 237 39 312 112 57 186 57 469 -5 392 -85 887 -196 1080
-242 496 -116 569 -136 599 -158 36 -25 71 -87 71 -125 0 -28 2 -29 28 -16 9
5 69 34 133 64 144 68 174 100 167 178 -4 37 -12 58 -34 80 -30 32 -195 118
-484 254 -91 42 -289 137 -440 210 -151 73 -345 165 -430 205 -85 40 -267 126
-404 192 -483 231 -532 252 -611 255 -41 2 -84 -3 -105 -11z m2235 -1386 c3
-6 -1 -7 -9 -4 -18 7 -21 14 -7 14 6 0 13 -4 16 -10z m-3836 -66 c-6 -8 -15
-12 -18 -8 -3 4 0 9 7 11 6 3 9 10 6 15 -4 7 -2 8 5 4 9 -6 9 -11 0 -22z m-29
-8 c0 -2 -7 -7 -16 -10 -8 -3 -12 -2 -9 4 6 10 25 14 25 6z m90 0 c0 -3 -4 -8
-10 -11 -5 -3 -10 -1 -10 4 0 6 5 11 10 11 6 0 10 -2 10 -4z m45 -42 c-17 -12
-18 -16 -5 -24 8 -5 11 -12 7 -16 -4 -4 -14 1 -22 12 -17 22 -20 38 -5 29 6
-3 10 -1 10 4 0 6 8 11 18 11 15 -1 15 -2 -3 -16z m-91 -2 c3 -5 -1 -9 -9 -9
-8 0 -12 4 -9 9 3 4 7 8 9 8 2 0 6 -4 9 -8z m46 -20 c0 -4 -10 -9 -22 -9 -18
-2 -20 0 -8 7 18 12 30 13 30 2z m-53 -44 c-3 -7 -5 -2 -5 12 0 14 2 19 5 13
2 -7 2 -19 0 -25z m70 10 c-3 -8 -6 -5 -6 6 -1 11 2 17 5 13 3 -3 4 -12 1 -19z
m-32 -7 c-3 -6 -11 -11 -17 -11 -6 0 -6 6 2 15 14 17 26 13 15 -4z m-98 -7
c-3 -3 -12 -4 -19 -1 -8 3 -5 6 6 6 11 1 17 -2 13 -5z m65 -37 c16 -25 7 -27
-21 -6 -17 12 -34 18 -42 14 -8 -6 -10 -4 -4 4 8 15 56 6 67 -12z m58 -37 c0
-5 -4 -12 -10 -15 -6 -4 -7 1 -3 12 6 16 5 16 -10 5 -14 -12 -16 -11 -14 6 1
16 5 19 19 11 10 -5 18 -14 18 -19z"/>
<path d="M5135 7401 c-25 -11 -51 -40 -59 -67 -13 -44 18 -59 229 -109 110
-26 344 -82 520 -125 176 -43 399 -98 495 -121 96 -23 267 -65 380 -93 l205
-51 8 -140 c4 -77 6 -167 5 -199 l-3 -59 -45 -24 c-60 -31 -97 -76 -116 -141
-21 -72 -12 -129 32 -193 l34 -51 0 -267 c0 -246 2 -268 20 -298 27 -45 60
-63 124 -70 81 -8 139 16 171 71 25 43 25 43 25 310 0 268 0 268 24 296 30 37
50 118 42 174 -9 58 -55 125 -109 158 l-44 28 -7 226 c-5 188 -9 232 -24 256
-35 60 39 39 -1197 342 -667 164 -667 164 -710 147z m1915 -1103 c42 -29 61
-85 35 -104 -9 -7 -25 -11 -35 -9 -12 2 -17 -1 -14 -9 4 -10 -5 -13 -31 -10
-19 1 -33 -2 -30 -7 4 -5 -1 -6 -9 -3 -14 5 -14 8 0 22 13 13 17 13 24 1 5 -7
12 -10 16 -7 3 4 -1 14 -9 23 -11 10 -18 12 -22 4 -4 -6 -16 -9 -26 -6 -11 3
-17 1 -13 -4 9 -15 -13 -10 -29 6 -8 8 -17 11 -21 8 -12 -12 -6 29 9 57 30 59
99 75 155 38z"/>
<path d="M3605 6790 c-3 -5 -1 -10 4 -10 6 0 11 5 11 10 0 6 -2 10 -4 10 -3 0
-8 -4 -11 -10z"/>
<path d="M3581 6741 c-8 -5 -9 -11 -3 -15 5 -3 12 1 16 9 6 17 6 18 -13 6z"/>
<path d="M3635 6729 c-4 -6 -5 -12 -2 -15 2 -3 7 2 10 11 7 17 1 20 -8 4z"/>
<path d="M3670 6700 c0 -5 5 -10 11 -10 5 0 7 5 4 10 -3 6 -8 10 -11 10 -2 0
-4 -4 -4 -10z"/>
<path d="M3565 6659 c-4 -6 -14 -8 -22 -5 -9 4 -13 1 -11 -6 7 -19 24 -20 42
-3 9 9 21 13 27 9 8 -4 9 -3 5 4 -9 15 -33 15 -41 1z"/>
<path d="M3610 6624 c0 -8 5 -12 10 -9 6 4 8 11 5 16 -9 14 -15 11 -15 -7z"/>
<path d="M3585 6620 c-3 -5 -1 -10 4 -10 6 0 11 5 11 10 0 6 -2 10 -4 10 -3 0
-8 -4 -11 -10z"/>
<path d="M3635 6609 c-10 -15 3 -25 16 -12 7 7 7 13 1 17 -6 3 -14 1 -17 -5z"/>
<path d="M3701 6574 c0 -11 3 -14 6 -6 3 7 2 16 -1 19 -3 4 -6 -2 -5 -13z"/>
<path d="M3842 6128 c3 -326 5 -346 25 -397 162 -399 877 -680 1517 -596 360
47 708 202 891 396 150 159 155 180 155 600 0 181 -2 329 -5 329 -11 0 -213
-95 -465 -218 -391 -190 -668 -318 -729 -336 -64 -19 -120 -20 -190 -5 -27 6
-246 108 -493 231 -483 240 -686 338 -700 338 -6 0 -8 -135 -6 -342z"/>
<path d="M3450 5743 c-76 -8 -182 -34 -220 -53 -68 -35 -93 -98 -55 -140 23
-25 59 -25 199 0 61 11 153 20 208 20 54 0 98 3 98 6 0 3 -11 24 -24 47 -13
23 -30 61 -37 85 l-12 42 -61 -2 c-34 0 -77 -3 -96 -5z"/>
<path d="M2835 5540 c-38 -12 -101 -64 -119 -98 -8 -15 -21 -74 -30 -132 -27
-175 -20 -160 -81 -160 -122 0 -211 -43 -241 -117 -13 -30 -43 -217 -149 -918
-54 -362 -91 -602 -130 -845 -53 -334 -105 -678 -112 -737 -7 -67 0 -95 39
-138 65 -75 -38 -69 1244 -66 l1151 3 33 -58 c77 -137 185 -248 299 -308 260
-137 560 -134 811 7 89 50 210 168 259 253 19 32 41 70 48 82 l15 24 1142 -4
1143 -3 49 30 c36 22 56 43 73 79 32 64 40 -2 -114 951 -25 154 -65 417 -90
585 -25 168 -61 404 -80 525 -19 121 -43 285 -55 365 -24 170 -44 214 -117
257 -40 23 -58 27 -130 27 -75 1 -84 3 -88 21 -2 11 -11 64 -19 117 -19 120
-39 170 -81 207 -89 78 -213 74 -200 -7 3 -15 12 -90 20 -167 9 -77 38 -315
66 -530 28 -214 59 -457 69 -540 11 -82 38 -296 61 -476 24 -184 39 -337 35
-352 -10 -42 -45 -53 -114 -38 -207 45 -287 54 -507 55 -241 1 -293 -5 -534
-61 -367 -84 -643 -212 -903 -420 -135 -107 -246 -230 -321 -356 l-35 -57 -68
97 c-163 231 -376 404 -679 554 -461 226 -998 302 -1460 207 -160 -34 -186
-34 -214 -4 l-24 25 17 133 c9 73 32 248 51 388 119 889 182 1376 191 1490 5
70 4 88 -9 98 -21 17 -75 23 -112 12z m4513 -2390 c8 0 10 -5 6 -12 -5 -10 -4
-10 5 -2 15 14 167 -16 218 -42 39 -20 41 -26 59 -139 20 -132 19 -158 -12
-189 -33 -32 -64 -33 -264 -7 -278 37 -396 44 -604 38 -226 -7 -357 -23 -563
-72 -326 -78 -500 -169 -683 -355 -47 -48 -107 -100 -135 -116 -49 -28 -54
-29 -219 -32 l-168 -4 -67 33 c-49 24 -90 57 -156 124 -132 134 -253 209 -452
281 -98 36 -297 87 -425 109 -236 42 -620 44 -903 5 -82 -12 -186 -24 -231
-27 l-80 -6 -28 34 c-26 31 -28 38 -23 94 12 113 29 186 51 211 29 33 226 80
226 54 0 -6 -4 -8 -10 -5 -15 9 -12 -2 6 -19 8 -9 11 -16 5 -16 -6 0 -11 -8
-11 -17 0 -13 2 -15 8 -5 10 15 42 6 42 -12 0 -7 -5 -17 -12 -24 -9 -9 -8 -12
5 -12 9 0 17 5 17 12 0 6 2 9 5 7 2 -3 2 -15 -2 -28 -3 -12 -9 -18 -12 -13
-10 16 -61 26 -61 12 0 -6 -5 -8 -12 -4 -7 4 -8 3 -4 -4 4 -6 13 -9 21 -5 11
4 13 1 9 -11 -3 -9 -1 -16 5 -16 6 0 11 8 11 18 1 15 2 15 10 1 6 -10 19 -14
44 -11 20 2 36 7 36 11 0 4 152 7 338 7 275 -1 355 -5 434 -19 118 -21 316
-72 378 -97 25 -9 77 -30 115 -45 182 -73 339 -167 542 -326 84 -66 164 -124
178 -129 15 -6 91 -10 170 -10 l143 0 45 33 c25 17 88 68 139 111 152 130 372
262 568 341 316 127 729 175 1152 135 53 -5 104 -7 112 -4 7 3 17 1 21 -5 3
-6 16 -11 28 -11 16 0 11 6 -20 22 -24 12 -43 26 -43 30 0 5 11 1 25 -8 13 -8
29 -13 35 -9 6 4 18 -1 26 -11 14 -18 14 -18 4 4 -6 12 -17 23 -25 23 -8 1
-20 2 -26 3 -7 0 -16 11 -20 24 -6 15 -5 21 1 17 6 -3 10 -12 10 -19 0 -7 7
-13 15 -13 19 0 19 11 0 27 -11 9 -12 17 -4 32 13 25 6 33 -18 19 -13 -7 -14
-10 -3 -11 11 0 11 -3 2 -12 -8 -8 -15 -9 -22 -2 -8 8 -6 15 5 24 18 15 20 37
3 43 -7 2 -4 3 7 1 11 -2 26 -4 33 -4z m-4403 -11 c-4 -5 1 -9 10 -9 9 0 13 5
9 11 -4 7 -1 10 6 7 7 -2 15 -14 17 -26 3 -20 0 -21 -16 -12 -26 14 -38 13
-23 -2 7 -7 12 -16 12 -21 0 -5 -7 -1 -16 7 -8 9 -21 16 -29 16 -21 0 -6 36
16 37 11 1 17 -2 14 -8z m4340 -69 c3 -5 1 -10 -4 -10 -6 0 -11 5 -11 10 0 6
2 10 4 10 3 0 8 -4 11 -10z m-4308 -15 c0 -8 -4 -12 -9 -9 -4 3 -8 9 -8 15 0
5 4 9 8 9 5 0 9 -7 9 -15z"/>
<path d="M7355 3070 c-3 -5 -2 -10 4 -10 5 0 13 5 16 10 3 6 2 10 -4 10 -5 0
-13 -4 -16 -10z"/>
<path d="M2907 3046 c-4 -10 -1 -13 8 -9 8 3 12 9 9 14 -7 12 -11 11 -17 -5z"/>
<path d="M6575 5299 c-188 -19 -248 -36 -342 -95 -235 -148 -540 -254 -848
-295 -128 -17 -468 -6 -607 20 -292 54 -524 141 -752 285 -104 66 -135 73
-371 82 -158 7 -312 -9 -425 -42 -83 -25 -125 -85 -98 -142 21 -44 54 -49 181
-27 132 23 368 26 515 6 148 -20 321 -71 537 -159 314 -127 501 -167 785 -165
284 1 464 41 812 179 381 152 666 193 992 145 113 -17 133 -18 157 -6 37 20
51 61 30 94 -8 12 -18 12 -66 -4 -71 -22 -171 -17 -238 13 -26 11 -71 44 -100
71 -30 28 -60 50 -68 50 -8 -1 -50 -5 -94 -10z"/>
<path d="M3330 4824 c-58 -8 -128 -21 -155 -29 -91 -26 -138 -103 -96 -157 29
-36 65 -42 141 -23 90 23 398 31 527 15 312 -39 652 -182 891 -377 40 -32 61
-43 88 -43 46 0 84 37 84 82 0 28 -11 44 -73 103 -329 317 -913 495 -1407 429z"/>
<path d="M6595 4834 c-226 -31 -321 -52 -475 -105 -211 -73 -440 -205 -576
-332 -34 -31 -65 -68 -68 -81 -7 -29 8 -74 32 -92 39 -30 74 -17 212 82 208
149 434 250 682 305 71 16 141 22 293 26 174 4 215 2 318 -16 106 -19 120 -20
146 -6 44 22 53 63 26 114 -18 37 -81 67 -176 86 -72 15 -353 28 -414 19z"/>
<path d="M5110 4483 c-8 -3 -25 -15 -37 -26 l-23 -20 0 -729 c0 -620 2 -733
15 -757 26 -52 86 -57 131 -10 l29 30 2 682 c1 375 -1 704 -4 731 -9 72 -62
119 -113 99z"/>
<path d="M3350 4349 c-105 -12 -229 -38 -261 -54 -67 -35 -89 -106 -44 -150
29 -30 40 -31 196 -4 169 29 435 22 609 -15 261 -56 542 -182 724 -325 100
-79 120 -91 149 -91 41 0 77 40 77 86 0 32 -8 45 -69 104 -128 126 -381 275
-596 350 -251 88 -549 126 -785 99z"/>
<path d="M6565 4345 c-247 -35 -433 -92 -640 -195 -186 -93 -418 -261 -447
-326 -23 -50 21 -114 77 -114 24 0 56 18 126 71 269 202 577 330 891 369 126
16 374 8 499 -15 116 -21 144 -16 166 29 15 32 15 37 -4 73 -25 50 -81 78
-198 98 -127 23 -348 28 -470 10z"/>
<path d="M3240 3865 c-116 -16 -203 -38 -236 -60 -14 -9 -32 -32 -41 -50 -16
-33 -16 -37 0 -70 23 -48 49 -52 193 -25 110 20 144 22 336 17 247 -6 325 -19
517 -83 228 -76 441 -190 595 -318 89 -75 111 -84 155 -62 65 34 53 98 -32
182 -147 143 -428 308 -654 384 -265 88 -578 120 -833 85z"/>
<path d="M6640 3873 c-410 -44 -788 -204 -1069 -453 -103 -91 -123 -143 -76
-194 41 -45 82 -35 171 39 208 177 514 324 799 385 143 31 458 39 605 15 187
-30 194 -30 219 -4 34 37 28 84 -16 129 -42 41 -102 59 -263 79 -79 10 -292
12 -370 4z"/>
</g>
</svg>
